#!OML:ASF H:\ManfredETheater\Project 1\Capture day 1\Session 1\subject.ASF
:FULLY-SPECIFIED
:DEGREES
315
root -13.1673 15.9267 -35.0082 -150.325 -25.5308 -184.786
lowerback 14.8505 -3.13911 -1.65497
upperback -1.5289 -4.23239 3.12784
thorax -9.64252 -1.86326 5.29437
lowerneck -19.7918 0.952978 -2.18628
upperneck -1.79385 0.986898 1.31403
head 2.85246 0.252462 0.898257
rclavicle -2.38542e-014 1.07344e-014
rhumerus -80.3384 -0.592964 -78.7537
rradius 90.0186
rwrist -14.2135
rhand -29.4663 9.49613
rfingers 7.12502
rthumb -2.802 -20.4652
lclavicle -2.38542e-014 1.07344e-014
lhumerus -35.7238 -24.0052 98.4095
lradius 135.121
lwrist 10.4675
lhand -21.6987 -14.1076
lfingers 7.12502
lthumb 4.69971 15.8203
rfemur -67.966 -8.704 25.862
rtibia 78.4048
rfoot -23.188 -12.9828
rtoes -39.1293
lfemur -2.076 -6.27547 -24.7461
ltibia 38.1577
lfoot 1.92466 -4.12085
ltoes -11.4013
316
root -13.2831 15.9394 -35.2854 -150.332 -25.087 -184.461
lowerback 14.9092 -2.94103 -1.39459
upperback -1.49003 -3.9277 3.08565
thorax -9.68302 -1.73238 5.03718
lowerneck -19.4888 0.996603 -2.18299
upperneck -2.35766 1.00567 1.25793
head 2.59711 0.244702 0.872561
rclavicle -8.74653e-015 1.03368e-014
rhumerus -78.0118 -1.51645 -78.5637
rradius 88.69
rwrist -14.5919
rhand -29.7704 8.36417
rfingers 7.12502
rthumb -3.09574 -21.5931
lclavicle -8.74653e-015 1.03368e-014
lhumerus -37.4855 -23.2413 99.1633
lradius 132.035
lwrist 11.0353
lhand -21.6684 -13.7047
lfingers 7.12502
lthumb 4.72897 16.2225
rfemur -66.6469 -8.18641 25.7339
rtibia 78.2753
rfoot -23.8878 -13.2759
rtoes -39.8495
lfemur -4.01308 -5.98603 -24.5093
ltibia 41.664
lfoot 5.94857 -4.64502
ltoes -5.86766
317
root -13.4002 15.9598 -35.5655 -150.374 -24.7492 -183.997
lowerback 14.9124 -2.76047 -0.994948
upperback -1.43314 -3.61967 3.08747
thorax -9.67445 -1.60907 4.74226
lowerneck -19.2155 1.02857 -2.18793
upperneck -2.90956 1.00878 1.22448
head 2.35381 0.229747 0.855273
rclavicle 9.14409e-015 -5.36719e-014
rhumerus -75.402 -2.42282 -78.5138
rradius 87.2146
rwrist -14.8804
rhand -30.0919 7.31682
rfingers 7.12502
rthumb -3.4062 -22.6357
lclavicle 9.14409e-015 -5.36719e-014
lhumerus -39.0612 -22.2366 99.7973
lradius 128.532
lwrist 11.5707
lhand -21.88 -13.5048
lfingers 7.12502
lthumb 4.5246 16.4269
rfemur -65.2754 -7.69774 25.7808
rtibia 78.0471
rfoot -24.5394 -13.4923
rtoes -40.5554
lfemur -6.22329 -5.66373 -24.0795
ltibia 45.5272
lfoot 9.35956 -5.11498
ltoes -0.42303
318
root -13.5164 15.9727 -35.8433 -150.434 -24.5164 -183.383
lowerback 14.8255 -2.59283 -0.460127
upperback -1.36891 -3.30364 3.14425
thorax -9.6068 -1.49027 4.42185
lowerneck -18.9778 1.04716 -2.20026
upperneck -3.42298 0.996972 1.1963
head 2.13254 0.208092 0.840837
rclavicle -2.82274e-014 3.53837e-014
rhumerus -72.5495 -3.26776 -78.6089
rradius 85.6165
rwrist -14.9902
rhand -30.374 6.46786
rfingers 7.12502
rthumb -3.67862 -23.4801
lclavicle -2.82274e-014 3.53837e-014
lhumerus -40.3896 -21.0457 100.287
lradius 124.618
lwrist 12.144
lhand -22.3037 -13.5239
lfingers 7.12502
lthumb 4.11553 16.4161
rfemur -63.96 -7.22015 26.0269
rtibia 77.7749
rfoot -25.1176 -13.6534
rtoes -41.2211
lfemur -8.71787 -5.28762 -23.4474
ltibia 49.7187
lfoot 11.9163 -5.51461
ltoes 4.33042
319
root -13.6322 15.9853 -36.121 -150.508 -24.3747 -182.678
lowerback 14.7185 -2.43557 0.152354
upperback -1.32261 -2.98737 3.24806
thorax -9.54392 -1.37419 4.10879
lowerneck -18.7877 1.04803 -2.22907
upperneck -3.84785 0.971327 1.1653
head 1.95212 0.181939 0.828803
rclavicle 6.75868e-015 -5.52621e-014
rhumerus -69.5211 -3.99063 -78.8502
rradius 83.9414
rwrist -14.9063
rhand -30.5571 5.85211
rfingers 7.12502
rthumb -3.85542 -24.0928
lclavicle 6.75868e-015 -5.52621e-014
lhumerus -41.4621 -19.7069 100.633
lradius 120.316
lwrist 12.816
lhand -22.8638 -13.6702
lfingers 7.12502
lthumb 3.57458 16.2796
rfemur -62.6267 -6.78749 26.4161
rtibia 77.4115
rfoot -25.6569 -13.761
rtoes -41.8074
lfemur -11.4395 -4.86043 -22.6705
ltibia 54.1372
lfoot 13.5436 -5.76219
ltoes 7.97344
320
root -13.7473 15.9974 -36.4006 -150.583 -24.264 -181.93
lowerback 14.5824 -2.27023 0.753863
upperback -1.28768 -2.66395 3.38703
thorax -9.4697 -1.25353 3.83804
lowerneck -18.6741 1.03105 -2.27586
upperneck -4.16333 0.933232 1.11915
head 1.82394 0.15185 0.815821
rclavicle -2.46493e-014 2.46493e-014
rhumerus -66.3412 -4.53663 -79.2421
rradius 82.2654
rwrist -14.682
rhand -30.6201 5.45883
rfingers 7.12502
rthumb -3.91629 -24.4849
lclavicle -2.46493e-014 2.46493e-014
lhumerus -42.241 -18.2469 100.817
lradius 115.632
lwrist 13.5336
lhand -23.4682 -13.9426
lfingers 7.12502
lthumb 2.99092 16.0162
rfemur -61.2618 -6.37859 26.8779
rtibia 76.9611
rfoot -26.1695 -13.8485
rtoes -42.3488
lfemur -14.3489 -4.34856 -21.8244
ltibia 58.7173
lfoot 14.1785 -5.86706
ltoes 10.2304
321
root -13.8628 16.0089 -36.682 -150.678 -24.1861 -181.155
lowerback 14.4342 -2.09845 1.35875
upperback -1.27864 -2.333 3.55492
thorax -9.41128 -1.12855 3.5967
lowerneck -18.5751 0.99336 -2.34731
upperneck -4.37436 0.883127 1.04537
head 1.73482 0.119348 0.798449
rclavicle 1.35174e-014 -2.62396e-014
rhumerus -63.0922 -4.85163 -79.7744
rradius 80.6781
rwrist -14.3864
rhand -30.5832 5.28086
rfingers 7.12502
rthumb -3.88067 -24.6635
lclavicle 1.35174e-014 -2.62396e-014
lhumerus -42.7914 -16.7072 100.865
lradius 110.636
lwrist 14.2449
lhand -24.0757 -14.3406
lfingers 7.12502
lthumb 2.40424 15.6256
rfemur -59.8279 -6.02227 27.4015
rtibia 76.408
rfoot -26.6816 -13.9232
rtoes -42.8441
lfemur -17.3865 -3.75622 -20.9265
ltibia 63.3589
lfoot 13.8931 -5.793
ltoes 11.1919
322
root -13.9781 16.0193 -36.9651 -150.779 -24.094 -180.402
lowerback 14.2956 -1.91104 1.9016
upperback -1.30306 -1.99265 3.73509
thorax -9.38803 -0.995045 3.40487
lowerneck -18.4854 0.943366 -2.4347
upperneck -4.47672 0.831461 0.924226
head 1.68475 0.0892145 0.769398
rclavicle -1.35174e-014 4.29375e-014
rhumerus -59.8362 -4.87049 -80.4478
rradius 79.282
rwrist -14.134
rhand -30.5003 5.26831
rfingers 7.12502
rthumb -3.80057 -24.6775
lclavicle -1.35174e-014 4.29375e-014
lhumerus -43.1986 -15.1357 100.805
lradius 105.471
lwrist 14.8841
lhand -24.7129 -14.7886
lfingers 7.12502
lthumb 1.78887 15.1836
rfemur -58.3255 -5.70768 27.9181
rtibia 75.7606
rfoot -27.2009 -13.9853
rtoes -43.2961
lfemur -20.528 -3.06842 -20.049
ltibia 67.9915
lfoot 12.8326 -5.51311
ltoes 10.9836
323
root -14.0931 16.0278 -37.2502 -150.869 -23.9476 -179.706
lowerback 14.14 -1.70246 2.33868
upperback -1.34756 -1.64435 3.91099
thorax -9.36997 -0.852274 3.26744
lowerneck -18.4142 0.892918 -2.5236
upperneck -4.48723 0.788953 0.744375
head 1.66915 0.065037 0.723044
rclavicle -5.56597e-015 4.37326e-014
rhumerus -56.6043 -4.55576 -81.2557
rradius 78.1867
rwrist -13.9719
rhand -30.3912 5.34319
rfingers 7.12502
rthumb -3.69526 -24.6045
lclavicle -5.56597e-015 4.37326e-014
lhumerus -43.5467 -13.5749 100.64
lradius 100.337
lwrist 15.3081
lhand -25.3404 -15.215
lfingers 7.12502
lthumb 1.1828 14.7615
rfemur -56.7681 -5.41465 28.3777
rtibia 75.0296
rfoot -27.7286 -14.0462
rtoes -43.7139
lfemur -23.7646 -2.27987 -19.2458
ltibia 72.5531
lfoot 11.1937 -5.01641
ltoes 9.79967
324
root -14.2084 16.0336 -37.5366 -150.917 -23.7221 -179.098
lowerback 13.9427 -1.47746 2.64983
upperback -1.40915 -1.29876 4.06322
thorax -9.34079 -0.704288 3.17594
lowerneck -18.3709 0.854552 -2.59891
upperneck -4.41521 0.767739 0.514343
head 1.6863 0.0519118 0.660266
rclavicle 3.77691e-014 8.74653e-015
rhumerus -53.4385 -3.88738 -82.1926
rradius 77.4904
rwrist -13.9228
rhand -30.292 5.50537
rfingers 7.12502
rthumb -3.59947 -24.444
lclavicle 3.77691e-014 8.74653e-015
lhumerus -43.9665 -12.0597 100.364
lradius 95.4897
lwrist 15.3652
lhand -25.8921 -15.6783
lfingers 7.12502
lthumb 0.649979 14.3005
rfemur -55.1885 -5.13914 28.736
rtibia 74.2326
rfoot -28.2556 -14.1081
rtoes -44.1255
lfemur -27.1135 -1.39257 -18.5693
ltibia 76.9891
lfoot 9.25555 -4.36891
ltoes 8.07418
325
root -14.3243 16.0366 -37.8248 -150.937 -23.4229 -178.559
lowerback 13.708 -1.24699 2.86517
upperback -1.48305 -0.965073 4.18402
thorax -9.29974 -0.556962 3.10733
lowerneck -18.3582 0.842901 -2.63558
upperneck -4.27197 0.781166 0.24146
head 1.73278 0.055497 0.579831
rclavicle 2.94201e-014 2.70347e-014
rhumerus -50.3925 -2.88191 -83.2426
rradius 77.2754
rwrist -13.9476
rhand -30.2045 5.79338
rfingers 7.12502
rthumb -3.51496 -24.1574
lclavicle 2.94201e-014 2.70347e-014
lhumerus -44.6202 -10.6645 100.001
lradius 91.2554
lwrist 15.0548
lhand -26.3767 -16.0684
lfingers 7.12502
lthumb 0.181929 13.9112
rfemur -53.5748 -4.87153 29.0036
rtibia 73.3768
rfoot -28.7796 -14.1784
rtoes -44.5443
lfemur -30.5583 -0.408143 -18.0099
ltibia 81.248
lfoot 7.27422 -3.69143
ltoes 6.28297
